<svg width="78" height="78" viewBox="0 0 78 78" fill="none" xmlns="http://www.w3.org/2000/svg">
<rect width="78" height="78" fill="black"/>
<rect width="78" height="78" fill="black"/>
<rect x="50.1216" y="22.1101" width="5.71006" height="5.70695" rx="2.85348" fill="#737373"/>
<rect width="19.501" height="5.70695" rx="2.85348" transform="matrix(-1 0 0 1 48.7505 15.1687)" fill="#E5E5E5"/>
<rect width="5.71006" height="5.70695" rx="2.85348" transform="matrix(-1 0 0 1 27.9087 22.1101)" fill="#737373"/>
<rect x="55.8286" y="50.0325" width="5.71006" height="5.70695" rx="2.85348" transform="rotate(90 55.8286 50.0325)" fill="#737373"/>
<rect width="19.5649" height="5.70695" rx="2.85348" transform="matrix(0 -1 -1 -4.37114e-08 62.7705 48.7246)" fill="#E5E5E5"/>
<rect width="6.63038" height="6.62677" rx="3.31339" transform="matrix(0 -1 -1 -4.37114e-08 58.541 26.0271)" fill="#E5E5E5"/>
<rect x="48.75" y="62.6814" width="19.5327" height="5.70695" rx="2.85348" transform="rotate(-180 48.75 62.6814)" fill="#E5E5E5"/>
<rect x="27.877" y="55.7397" width="5.71006" height="5.70695" rx="2.85348" transform="rotate(-180 27.877 55.7397)" fill="#737373"/>
<rect width="6.63038" height="6.62677" rx="3.31339" transform="matrix(1 8.74228e-08 8.74228e-08 -1 51.8779 58.4473)" fill="#E5E5E5"/>
<rect x="19.4585" y="26.0645" width="6.63038" height="6.62677" rx="3.31339" transform="rotate(-90 19.4585 26.0645)" fill="#E5E5E5"/>
<rect width="19.5323" height="5.70695" rx="2.85348" transform="matrix(0 1 1 -4.37114e-08 15.2295 29.1926)" fill="#E5E5E5"/>
<rect width="6.63038" height="6.62677" rx="3.31339" transform="matrix(0 1 1 -4.37114e-08 19.4585 51.8574)" fill="#E5E5E5"/>
</svg>
